# xmcd
#
# Track frame offsets:
#	150
#	18320
#	37090
#	58997
#
# Disc length: 1030 seconds
#
# Revision: 1
# Processed by: cddbd v1.4PL0 Copyright (c) Steve Scherf et al.
# Submitted via: EasyCDDAExtractor 5.0.6
#
DISCID=32040404
DTITLE=Horace Brown - Things We Do For Love ( Single)
DYEAR=1996
DGENRE=r&B
TTITLE0=Things We Do For Love ( Radio Edit)
TTITLE1=Things We Do For Love ( Eddie F's Paradise Mix - Clean feat Jay Z)
TTITLE2=Things We Do For Love ( Instrumental)
TTITLE3=Feeling Alright
EXTD=
EXTT0=
EXTT1=
EXTT2=
EXTT3=
PLAYORDER=
